# xmcd
#
# Track frame offsets:
#	150
#	13431
#	32147
#	45923
#	60326
#	72842
#	88091
#	101249
#	117303
#	136084
#	146697
#	158541
#
# Disc length: 2398 seconds
#
# Revision: 0
# Processed by: cddbd v1.4PL0 Copyright (c) Steve Scherf et al.
# Submitted via: dBpowerAMP V4.0
#
DISCID=9e095c0c
DTITLE=Becky Buller - Rest My Weary Feet
DYEAR=2002
DGENRE=Bluegrass
TTITLE0=How I Love You
TTITLE1=Rest My Weary Feet
TTITLE2=Samwise
TTITLE3=Like a Thief
TTITLE4=You're Letting Me Go
TTITLE5=The Blind Beggar
TTITLE6=Charlie Lawson's Still
TTITLE7=Old Danger Field
TTITLE8=The Prodigal Son
TTITLE9=Anchored in Love
TTITLE10=Why Don't You Just Say Good-bye?
TTITLE11=I Don't Know Why
EXTD=www.beckybuller.com
EXTT0=
EXTT1=
EXTT2=
EXTT3=
EXTT4=
EXTT5=
EXTT6=
EXTT7=
EXTT8=
EXTT9=
EXTT10=
EXTT11=
PLAYORDER=
